<svg xmlns="http://www.w3.org/2000/svg" viewBox="0 0 204.36 175"><defs><style>.cls-1{fill:#fff;}</style></defs><title>jweeden Logo</title><g id="Layer_2" data-name="Layer 2"><g id="Layer_1-2" data-name="Layer 1"><polygon class="cls-1" points="189.78 0 0 0 0 14.58 189.78 14.58 189.78 160.42 14.58 160.42 14.58 29.17 0 29.17 0 160.42 0 175 189.78 175 204.36 175 204.36 160.42 204.36 14.58 204.36 0 189.78 0"/><path class="cls-1" d="M43.51,87.17h0a14.67,14.67,0,0,0-14.67,14.67v14c0,16.35,13.38,30.2,29.72,30a29.26,29.26,0,0,0,21.61-9.94q.39.45.81.88l.06.07a29.31,29.31,0,0,0,43.13-.94,29.26,29.26,0,0,0,21.61,9.94c16.35.21,29.72-13.63,29.72-30V43.17A14.67,14.67,0,0,0,160.85,28.5h0v87.59a14.94,14.94,0,0,1-14,15.06,14.67,14.67,0,0,1-15.38-14.65v-88H116.85v87.57a15,15,0,0,1-14,15.08,14.61,14.61,0,0,1-11.43-4.71h0q-.45-.49-.86-1h0q-.4-.52-.76-1.08l0-.05q-.34-.53-.63-1.1l-.07-.15c-.17-.35-.34-.7-.49-1.06l-.11-.29c-.12-.33-.24-.65-.34-1,0-.16-.08-.32-.12-.48s-.15-.57-.21-.86-.08-.5-.11-.75-.07-.43-.09-.65c0-.48-.07-1-.07-1.46v-88h0A14.67,14.67,0,0,0,72.85,43.17v72.92a14.94,14.94,0,0,1-14,15.06A14.67,14.67,0,0,1,43.51,116.5V87.17Z"/></g></g></svg>